<?xml version="1.0" encoding="UTF-8"?>
<svg version="1.1" xmlns="http://www.w3.org/2000/svg" width="250" height="80">
<path d="M0 0 C0.721875 0.12375 1.44375 0.2475 2.1875 0.375 C3.45343439 2.90686878 3.34668194 4.72474791 3.39282227 7.55908203 C3.4227401 9.18053635 3.4227401 9.18053635 3.45326233 10.83474731 C3.46997482 12.00560883 3.48668732 13.17647034 3.50390625 14.3828125 C3.52468735 15.57856903 3.54546844 16.77432556 3.56687927 18.00631714 C3.63242289 21.83748464 3.69128218 25.66872238 3.75 29.5 C3.79318063 32.09245527 3.83679477 34.68490336 3.88085938 37.27734375 C3.98810919 43.64315427 4.0898666 50.00903513 4.1875 56.375 C5.1053125 55.56160156 6.023125 54.74820313 6.96875 53.91015625 C9.4677035 51.69549381 10.18129813 51.37599673 13.6875 50.8125 C17.91840654 51.49246712 20.04255817 52.45469687 23.1875 55.375 C24.1875 59 24.1875 59 24.1875 62.375 C21.46643306 65.09606694 19.33973689 64.98155572 15.5625 65.5 C14.37398437 65.66757813 13.18546875 65.83515625 11.9609375 66.0078125 C11.04570313 66.12898438 10.13046875 66.25015625 9.1875 66.375 C10.1775 67.86 10.1775 67.86 11.1875 69.375 C15.30733282 69.74953026 19.13982429 69.14598585 23.1875 68.375 C22.875 70.75 22.875 70.75 22.1875 73.375 C17.96899503 76.18733664 14.14368037 76.18787672 9.1875 75.375 C6.8997351 73.92237051 5.84197333 72.58096444 4.1875 70.375 C3.8575 73.675 3.5275 76.975 3.1875 80.375 C1.2075 80.375 -0.7725 80.375 -2.8125 80.375 C-3.1425 57.935 -3.4725 35.495 -3.8125 12.375 C-8.4325 18.315 -13.0525 24.255 -17.8125 30.375 C-28.9375 44.67857143 -28.9375 44.67857143 -32.8125 48.375 C-34.1325 47.715 -35.4525 47.055 -36.8125 46.375 C-36.20778734 43.16492824 -35.17056006 41.22606976 -33.14453125 38.6796875 C-32.3090979 37.61862793 -32.3090979 37.61862793 -31.45678711 36.53613281 C-30.85229736 35.78170898 -30.24780762 35.02728516 -29.625 34.25 C-28.35133472 32.63820081 -27.07790421 31.02621606 -25.8046875 29.4140625 C-25.14694336 28.58551758 -24.48919922 27.75697266 -23.81152344 26.90332031 C-20.00997922 22.09521187 -16.27165967 17.2377732 -12.52075195 12.39013672 C-10.95905063 10.37890023 -9.38742879 8.37588542 -7.8125 6.375 C-7.11338501 5.46790283 -7.11338501 5.46790283 -6.40014648 4.54248047 C-3.13407692 0.41787692 -3.13407692 0.41787692 0 0 Z M12.1875 56.375 C11.5275 57.695 10.8675 59.015 10.1875 60.375 C12.8275 60.045 15.4675 59.715 18.1875 59.375 C17.5275 58.385 16.8675 57.395 16.1875 56.375 C14.8675 56.375 13.5475 56.375 12.1875 56.375 Z " fill="#3E235E" transform="translate(94.8125,-0.375)"/>
<path d="M0 0 C3.65613467 0.58254702 3.9299913 0.82530929 6.0390625 3.609375 C6.99508322 5.02588383 7.92996597 6.45680043 8.84765625 7.8984375 C9.90093935 9.47099364 10.95567476 11.04257784 12.01171875 12.61328125 C12.55086914 13.42780762 13.09001953 14.24233398 13.64550781 15.08154297 C16.24023758 18.94582039 18.98061588 22.70047234 21.72265625 26.4609375 C22.8064255 27.9567155 23.88975571 29.45281171 24.97265625 30.94921875 C25.5140625 31.6963916 26.05546875 32.44356445 26.61328125 33.21337891 C28.34033025 35.59967237 30.06329501 37.98886719 31.78515625 40.37890625 C32.64862671 41.57688843 32.64862671 41.57688843 33.52954102 42.79907227 C34.61907856 44.31091362 35.70814654 45.82309354 36.79663086 47.33569336 C37.54698608 48.37608765 37.54698608 48.37608765 38.3125 49.4375 C38.79702637 50.11329102 39.28155273 50.78908203 39.78076172 51.48535156 C40.82196899 52.89593227 41.89656418 54.28224621 42.99658203 55.64746094 C43.82198486 56.6804834 43.82198486 56.6804834 44.6640625 57.734375 C45.16623291 58.3432959 45.66840332 58.9522168 46.18579102 59.57958984 C47.56616546 62.02030521 47.48490131 63.76391936 47.28515625 66.5234375 C45.30515625 67.0184375 45.30515625 67.0184375 43.28515625 67.5234375 C35.95050021 58.15229682 28.93294552 48.57644125 21.99804688 38.90673828 C20.24020983 36.46089945 18.47482466 34.02068207 16.70703125 31.58203125 C16.12348877 30.77660889 15.53994629 29.97118652 14.9387207 29.14135742 C13.8259407 27.6058825 12.71253485 26.07086086 11.59838867 24.53637695 C10.83812378 23.4858313 10.83812378 23.4858313 10.0625 22.4140625 C9.40109009 21.50188965 9.40109009 21.50188965 8.72631836 20.57128906 C6.86267825 17.92310793 5.08139315 15.21779285 3.28515625 12.5234375 C2.95515625 34.6334375 2.62515625 56.7434375 2.28515625 79.5234375 C-0.18984375 80.0184375 -0.18984375 80.0184375 -2.71484375 80.5234375 C-4.40883755 78.8294437 -3.84065955 76.72051312 -3.85037231 74.46014404 C-3.84834808 73.73595276 -3.84632385 73.01176147 -3.84423828 72.265625 C-3.8459906 71.50630676 -3.84774292 70.74698853 -3.84954834 69.96466064 C-3.85396705 67.44256334 -3.85102881 64.92053557 -3.84765625 62.3984375 C-3.84832928 60.65348294 -3.8492993 58.90852846 -3.85055542 57.16357422 C-3.85203242 53.50161855 -3.84987778 49.83968722 -3.84521484 46.17773438 C-3.83951755 41.47299258 -3.84279655 36.76830782 -3.84878731 32.06356812 C-3.85239287 28.45889859 -3.85125436 24.85424268 -3.84865952 21.24957275 C-3.84799023 19.51434319 -3.84881871 17.77911241 -3.85113907 16.04388428 C-3.85366552 13.62297263 -3.84982513 11.20215464 -3.84423828 8.78125 C-3.84626251 8.05705872 -3.84828674 7.33286743 -3.85037231 6.58673096 C-3.82523839 0.73752798 -3.82523839 0.73752798 0 0 Z " fill="#1C0C2F" transform="translate(8.71484375,-0.5234375)"/>
<path d="M0 0 C2.15625 0.06640625 2.15625 0.06640625 5 1 C7.04039833 3.2774446 8.7563575 5.44942366 10.5 7.9375 C11.01699463 8.65115723 11.53398926 9.36481445 12.06665039 10.10009766 C13.16525144 11.61981535 14.25762912 13.1440483 15.34423828 14.67236328 C16.95450157 16.93603921 18.5813068 19.1866714 20.21484375 21.43359375 C24.71931714 27.63672148 29.19074359 33.86307654 33.640625 40.10546875 C34.23431885 40.9351416 34.8280127 41.76481445 35.43969727 42.61962891 C36.58442249 44.21958988 37.72567345 45.82204365 38.86303711 47.42724609 C39.37616455 48.14348145 39.88929199 48.8597168 40.41796875 49.59765625 C40.86938232 50.23195557 41.3207959 50.86625488 41.78588867 51.51977539 C42.95095575 53.14545374 42.95095575 53.14545374 45 54 C45.33644531 53.21496094 45.33644531 53.21496094 45.6796875 52.4140625 C47.47878605 49.12458645 49.78916352 46.29153436 52.125 43.375 C52.85553589 42.45436768 52.85553589 42.45436768 53.60083008 41.51513672 C55.06351545 39.67376956 56.53114418 37.83644692 58 36 C58.8347348 34.95320424 59.66937767 33.90633517 60.50390625 32.859375 C62.33221927 30.56989537 64.16392523 28.28325631 66 26 C67.65 26.33 69.3 26.66 71 27 C70.64729063 32.40475247 67.48681114 35.49734864 64.125 39.4375 C62.94555352 40.85198051 61.76718935 42.2673641 60.58984375 43.68359375 C59.99284668 44.39757324 59.39584961 45.11155273 58.78076172 45.84716797 C56.02125501 49.18324284 53.35117532 52.58724916 50.6875 56 C50.21393066 56.60513428 49.74036133 57.21026855 49.25244141 57.83374023 C48.16703376 59.22150853 47.08330551 60.61059013 46 62 C43.0994227 61.67275538 41.4259412 61.39449587 39.25390625 59.3828125 C38.69574219 58.63773438 38.13757812 57.89265625 37.5625 57.125 C36.87671875 56.22007813 36.1909375 55.31515625 35.484375 54.3828125 C34.65569571 53.25561562 33.82762899 52.12796827 33 51 C31.94322705 49.58034289 30.8858952 48.16110172 29.828125 46.7421875 C22.75579992 37.22151938 15.77998492 27.62814283 8.87109375 17.98828125 C7.13799076 15.5701438 5.3869477 13.16978874 3.59765625 10.79296875 C2.94667969 9.91253906 2.29570312 9.03210937 1.625 8.125 C0.80902344 7.04605469 0.80902344 7.04605469 -0.0234375 5.9453125 C-1 4 -1 4 -0.6640625 1.7421875 C-0.44492187 1.16726562 -0.22578125 0.59234375 0 0 Z " fill="#5D3A88" transform="translate(17,0)"/>
<path d="M0 0 C2.475 0.495 2.475 0.495 5 1 C4.88204571 5.82398914 4.75781982 10.64775958 4.62768555 15.47143555 C4.58427703 17.11364303 4.54260642 18.75589739 4.50268555 20.39819336 C4.4451256 22.75388745 4.38139108 25.10934428 4.31640625 27.46484375 C4.29133751 28.57266457 4.29133751 28.57266457 4.26576233 29.7028656 C4.11387171 34.88612829 4.11387171 34.88612829 3 36 C-3.70193907 37.25226543 -9.156276 37.77407175 -15 34 C-17.67075199 30.49463802 -18.22882826 27.73518071 -18 23.4375 C-17.320104 18.95774083 -15.6462168 16.77806994 -12 14 C-8.52674819 12.8422494 -5.63932552 12.93133348 -2 13 C-1.90912109 11.84371094 -1.90912109 11.84371094 -1.81640625 10.6640625 C-1.73261719 9.66117188 -1.64882812 8.65828125 -1.5625 7.625 C-1.48128906 6.62726562 -1.40007812 5.62953125 -1.31640625 4.6015625 C-1 2 -1 2 0 0 Z M-11 20 C-12.77216964 22.44728188 -13.03832249 23.59761381 -12.75 26.625 C-12.1515662 29.15600229 -12.1515662 29.15600229 -10 31 C-7.06991681 31.83557723 -7.06991681 31.83557723 -4 32 C-3.01 31.34 -2.02 30.68 -1 30 C-0.52277528 27.90157631 -0.52277528 27.90157631 -0.625 25.5625 C-0.61339844 24.38880859 -0.61339844 24.38880859 -0.6015625 23.19140625 C-1.08976705 20.50628123 -1.81215249 19.5972314 -4 18 C-7.17370278 18 -8.3794668 18.30933342 -11 20 Z " fill="#5B3487" transform="translate(167,38)"/>
<path d="M0 0 C0.33 0 0.66 0 1 0 C1 1.65 1 3.3 1 5 C2.65 5 4.3 5 6 5 C5.67 27.44 5.34 49.88 5 73 C4.67 73 4.34 73 4 73 C3.67 51.22 3.34 29.44 3 7 C-1.62 12.94 -6.24 18.88 -11 25 C-22.125 39.30357143 -22.125 39.30357143 -26 43 C-27.32 42.34 -28.64 41.68 -30 41 C-29.39528734 37.78992824 -28.35806006 35.85106976 -26.33203125 33.3046875 C-25.77475342 32.59691162 -25.21747559 31.88913574 -24.64331055 31.15991211 C-24.03914307 30.40589111 -23.43497559 29.65187012 -22.8125 28.875 C-21.54404867 27.26970677 -20.27582657 25.66423239 -19.0078125 24.05859375 C-18.35071289 23.23085449 -17.69361328 22.40311523 -17.01660156 21.55029297 C-13.71044865 17.36917029 -10.4516302 13.15145079 -7.1875 8.9375 C-6.01515803 7.42513352 -4.84205215 5.91335871 -3.66796875 4.40234375 C-3.17578857 3.76804443 -2.6836084 3.13374512 -2.17651367 2.48022461 C-1 1 -1 1 0 0 Z " fill="#382352" transform="translate(88,5)"/>
<path d="M0 0 C2.5625 1.625 2.5625 1.625 4 4 C4.25 7.75 4.25 7.75 4 11 C-1.12919186 13.10428384 -5.5610835 13.21755666 -11 13 C-10.34 14.32 -9.68 15.64 -9 17 C-4.86425173 17.0984702 -1.06368679 16.77403558 3 16 C3.33 17.32 3.66 18.64 4 20 C0.1100008 23.01161228 -3.07194628 23.53042053 -7.84765625 23.34765625 C-11.20531969 22.80531134 -12.7939555 21.54029366 -15 19 C-17.35306921 14.29386158 -17.43680221 9.98775625 -16 5 C-11.7820935 -1.60805352 -7.14432623 -1.63777876 0 0 Z M-10 6 C-10 6.66 -10 7.32 -10 8 C-5.545 7.505 -5.545 7.505 -1 7 C-1.99 6.01 -2.98 5.02 -4 4 C-7.18490007 3.7226499 -7.18490007 3.7226499 -10 6 Z " fill="#5B3588" transform="translate(244,52)"/>
<path d="M0 0 C3.375 1.5625 3.375 1.5625 6 4 C7 7.625 7 7.625 7 11 C4.27893306 13.72106694 2.15223689 13.60655572 -1.625 14.125 C-3.40777344 14.37636719 -3.40777344 14.37636719 -5.2265625 14.6328125 C-6.14179687 14.75398438 -7.05703125 14.87515625 -8 15 C-7.01 16.485 -7.01 16.485 -6 18 C-1.88016718 18.37453026 1.95232429 17.77098585 6 17 C5.6875 19.375 5.6875 19.375 5 22 C0.74136188 24.83909208 -3.00427779 24.74099229 -8 24 C-11.36985969 21.9368206 -12.63939603 20.46645616 -13.5859375 16.6171875 C-14.19949324 12.04960585 -14.58992709 8.00261459 -12 4 C-8.19928608 -0.01789757 -5.45898982 -0.76617401 0 0 Z M-5 5 C-5.66 6.32 -6.32 7.64 -7 9 C-4.36 8.67 -1.72 8.34 1 8 C0.34 7.01 -0.32 6.02 -1 5 C-2.32 5 -3.64 5 -5 5 Z " fill="#5D348A" transform="translate(112,51)"/>
<path d="M0 0 C2.0625 0.4375 2.0625 0.4375 4 1 C3.97679687 2.04800781 3.95359375 3.09601562 3.9296875 4.17578125 C3.91092697 5.55468037 3.89272707 6.9335872 3.875 8.3125 C3.85824219 9.00279297 3.84148437 9.69308594 3.82421875 10.40429688 C3.78782206 14.17135396 3.85621136 15.78431704 6 19 C7.32 19 8.64 19 10 19 C12.06955465 14.41860684 12.38747677 10.39136659 12.65625 5.42578125 C13 3 13 3 15 1 C15.99 1 16.98 1 18 1 C18.03738281 1.85722656 18.07476562 2.71445312 18.11328125 3.59765625 C18.40574956 11.04333646 18.40574956 11.04333646 20.625 18.0625 C22 21 22 21 21.6875 23.4375 C21.460625 23.953125 21.23375 24.46875 21 25 C18.13275314 24.42655063 17.1385485 24.1385485 15 22 C14.46375 22.495 13.9275 22.99 13.375 23.5 C10.30142595 25.44120466 8.58544099 25.43903359 5 25 C1.95981937 23.68719473 0.4309144 22.69767094 -1.3125 19.875 C-2.80259906 13.64367666 -2.1711673 7.24622562 -1 1 C-0.67 0.67 -0.34 0.34 0 0 Z " fill="#5E378D" transform="translate(178,50)"/>
<path d="M0 0 C2.86942113 2.26533247 3.83907612 3.51722837 5 7 C5.07029121 9.57265818 5.09370832 12.11641431 5.0625 14.6875 C5.05798828 15.38939453 5.05347656 16.09128906 5.04882812 16.81445312 C5.03706927 18.54300538 5.01913454 20.27151365 5 22 C3.68 22.33 2.36 22.66 1 23 C-0.81361978 19.37276044 -0.41091321 15.06878043 -0.62109375 11.06640625 C-0.78804855 7.83207875 -0.78804855 7.83207875 -3 5 C-4.92309422 5.03955898 -4.92309422 5.03955898 -7 6 C-10.43052949 10.95520927 -10.66523862 16.1589911 -11 22 C-12.9375 22.5625 -12.9375 22.5625 -15 23 C-16.61780157 21.38219843 -16.22272147 19.54364482 -16.31640625 17.30859375 C-16.37924805 15.89223633 -16.37924805 15.89223633 -16.44335938 14.44726562 C-16.48267578 13.45404297 -16.52199219 12.46082031 -16.5625 11.4375 C-16.60568359 10.44041016 -16.64886719 9.44332031 -16.69335938 8.41601562 C-16.79980298 5.9441585 -16.90181928 3.4721969 -17 1 C-15.35 0.67 -13.7 0.34 -12 0 C-12 0.66 -12 1.32 -12 2 C-11.319375 1.484375 -10.63875 0.96875 -9.9375 0.4375 C-6.09474677 -1.44299626 -4.08867758 -1.11509388 0 0 Z " fill="#573181" transform="translate(140,52)"/>
<path d="M0 0 C2.625 1.6875 2.625 1.6875 4 4 C3.75 6.75 3.75 6.75 3 9 C1.0625 8.625 1.0625 8.625 -1 8 C-1.33 7.34 -1.66 6.68 -2 6 C-4.41619823 5.74969023 -4.41619823 5.74969023 -7 6 C-9.31332486 9.46998729 -9.33957563 10.92509248 -9 15 C-8.01 16.485 -8.01 16.485 -7 18 C-4.62102997 18.04510361 -4.62102997 18.04510361 -2 17 C-0.32150176 14.7691525 0.75999263 12.52594094 2 10 C3.32 10.33 4.64 10.66 6 11 C5.58634898 16.27405053 4.71026864 19.17729898 1 23 C-2.21929573 24.60964787 -5.51887712 24.60686242 -9 24 C-12.21954645 21.46546343 -13.70432435 19.88702695 -15 16 C-15.36928024 10.36847628 -15.14319824 6.88941949 -12 2 C-7.98272339 -0.67818441 -4.71973745 -0.68882655 0 0 Z " fill="#5D378C" transform="translate(218,51)"/>
<path d="M0 0 C2.475 0.495 2.475 0.495 5 1 C4.64729063 6.40475247 1.48681114 9.49734864 -1.875 13.4375 C-3.05444648 14.85198051 -4.23281065 16.2673641 -5.41015625 17.68359375 C-6.00715332 18.39757324 -6.60415039 19.11155273 -7.21923828 19.84716797 C-9.97874499 23.18324284 -12.64882468 26.58724916 -15.3125 30 C-15.78606934 30.60513428 -16.25963867 31.21026855 -16.74755859 31.83374023 C-17.83296624 33.22150853 -18.91669449 34.61059013 -20 36 C-21.65 35.67 -23.3 35.34 -25 35 C-24.40960938 34.91234375 -23.81921875 34.8246875 -23.2109375 34.734375 C-20.40046678 33.80086176 -19.42087467 32.58025689 -17.625 30.25 C-17.08101563 29.57453125 -16.53703125 28.8990625 -15.9765625 28.203125 C-14.68865714 25.94424134 -14.68865714 25.94424134 -15.8359375 23.234375 C-16.22007813 22.49703125 -16.60421875 21.7596875 -17 21 C-16.59160889 20.5059668 -16.18321777 20.01193359 -15.76245117 19.50292969 C-13.90320361 17.25272009 -12.04533962 15.00137214 -10.1875 12.75 C-9.54490234 11.97269531 -8.90230469 11.19539063 -8.24023438 10.39453125 C-7.61826172 9.64042969 -6.99628906 8.88632812 -6.35546875 8.109375 C-5.78465576 7.41811523 -5.21384277 6.72685547 -4.62573242 6.01464844 C-3.03492322 4.04327773 -1.50698245 2.03592331 0 0 Z " fill="#583580" transform="translate(83,26)"/>
<path d="M0 0 C0.66 0.33 1.32 0.66 2 1 C0.62211705 3.9469554 -0.97477845 6.47050895 -2.9375 9.0625 C-3.44152344 9.73410156 -3.94554688 10.40570313 -4.46484375 11.09765625 C-6 13 -6 13 -7.61328125 14.55078125 C-9.26366322 16.09490876 -9.26366322 16.09490876 -10.25 19.125 C-12.21142632 23.98186517 -15.30728728 28.29934597 -19 32 C-21.09765625 32.8828125 -21.09765625 32.8828125 -23 33 C-23.66 32.34 -24.32 31.68 -25 31 C-24.45616296 26.38210396 -21.42894928 23.32462621 -18.625 19.8125 C-18.13 19.17119141 -17.635 18.52988281 -17.125 17.86914062 C-16.64289063 17.25876953 -16.16078125 16.64839844 -15.6640625 16.01953125 C-15.00591553 15.18578979 -15.00591553 15.18578979 -14.33447266 14.33520508 C-13 13 -13 13 -10 12 C-8.05783559 9.72006787 -6.57221213 7.30484471 -5 4.75 C-4.34 3.8425 -3.68 2.935 -3 2 C-2.01 2 -1.02 2 0 2 C0 1.34 0 0.68 0 0 Z " fill="#382353" transform="translate(83,15)"/>
<path d="M0 0 C0.66 0.33 1.32 0.66 2 1 C4.3329866 1.04022391 6.66706666 1.04320247 9 1 C6.35261084 2.4606285 5.10551666 3 2 3 C2 3.66 2 4.32 2 5 C4.31 5 6.62 5 9 5 C9 5.66 9 6.32 9 7 C4.545 7.495 4.545 7.495 0 8 C0.99 9.485 0.99 9.485 2 11 C6.11983282 11.37453026 9.95232429 10.77098585 14 10 C13.6875 12.375 13.6875 12.375 13 15 C8.74136188 17.83909208 4.99572221 17.74099229 0 17 C-3.0625 15.125 -3.0625 15.125 -5 12 C-5.67241888 8.66337602 -5.92739242 5.3993551 -6 2 C-5.34 2 -4.68 2 -4 2 C-4 2.99 -4 3.98 -4 5 C-2.68 4.67 -1.36 4.34 0 4 C0 2.68 0 1.36 0 0 Z " fill="#552F83" transform="translate(104,58)"/>
<path d="M0 0 C0.99 0.33 1.98 0.66 3 1 C2.76228882 1.78842285 2.76228882 1.78842285 2.51977539 2.59277344 C1.87265174 5.58978574 1.78111912 8.45054208 1.68359375 11.515625 C1.64169922 12.76601563 1.59980469 14.01640625 1.55664062 15.3046875 C1.51732422 16.60664062 1.47800781 17.90859375 1.4375 19.25 C1.39431641 20.56742188 1.35113281 21.88484375 1.30664062 23.2421875 C1.20058083 26.49468788 1.09851976 29.74726392 1 33 C-1.9144539 33.76391989 -4.54272365 34.18868474 -7.5625 34.25 C-8.32691406 34.27578125 -9.09132812 34.3015625 -9.87890625 34.328125 C-12.49723244 33.92308006 -13.34518701 33.00903813 -15 31 C-12.03059337 30.01019779 -10.96744375 29.98226715 -8 30.4375 C-5.58781781 30.79841362 -3.45615436 31 -1 31 C-1.99 26.38 -2.98 21.76 -4 17 C-8.92422885 16.01515423 -9.81354102 15.96657707 -14 18 C-13.3125 16.0625 -13.3125 16.0625 -12 14 C-8.60214108 12.83757458 -6.3899051 13.05515411 -3 14 C-2.95101562 13.07316406 -2.90203125 12.14632812 -2.8515625 11.19140625 C-2.77679688 9.99386719 -2.70203125 8.79632813 -2.625 7.5625 C-2.55539063 6.36753906 -2.48578125 5.17257813 -2.4140625 3.94140625 C-2.27742187 2.97074219 -2.14078125 2.00007813 -2 1 C-1.34 0.67 -0.68 0.34 0 0 Z " fill="#633896" transform="translate(168,39)"/>
<path d="M0 0 C2 2 2 2 2.24050903 4.29055786 C2.23606781 5.24542084 2.23162659 6.20028381 2.22705078 7.18408203 C2.22689972 8.26505157 2.22674866 9.34602112 2.22659302 10.45974731 C2.21627045 11.63060883 2.20594788 12.80147034 2.1953125 14.0078125 C2.1924826 15.20356903 2.18965271 16.39932556 2.18673706 17.63131714 C2.17551305 21.46264519 2.15040431 25.29374222 2.125 29.125 C2.11497308 31.71744455 2.10584673 34.30989275 2.09765625 36.90234375 C2.07556646 43.26830842 2.04206706 49.63413771 2 56 C-1.04595624 52.95404376 -0.37811198 49.38715399 -0.44921875 45.29296875 C-0.47095657 44.41659256 -0.4926944 43.54021637 -0.51509094 42.63728333 C-0.55909091 40.77367432 -0.59827162 38.90994636 -0.63305664 37.04614258 C-0.68656267 34.23671625 -0.75701152 31.42811833 -0.83007812 28.61914062 C-1.05431244 19.00657814 -1.04771074 9.57191204 0 0 Z " fill="#2E1B4C" transform="translate(96,0)"/>
<path d="M0 0 C2.475 0.495 2.475 0.495 5 1 C4.88204571 5.82398914 4.75781982 10.64775958 4.62768555 15.47143555 C4.58427703 17.11364303 4.54260642 18.75589739 4.50268555 20.39819336 C4.4451256 22.75388745 4.38139108 25.10934428 4.31640625 27.46484375 C4.29133751 28.57266457 4.29133751 28.57266457 4.26576233 29.7028656 C4.11387171 34.88612829 4.11387171 34.88612829 3 36 C-3.74946448 37.26114561 -9.04001603 37.62781633 -15 34 C-15.495 32.515 -15.495 32.515 -16 31 C-15.34 31 -14.68 31 -14 31 C-14 31.66 -14 32.32 -14 33 C-10.57767028 34.14077657 -7.91326783 34.09815117 -4.3125 34.0625 C-3.13300781 34.05347656 -1.95351562 34.04445312 -0.73828125 34.03515625 C0.16535156 34.02355469 1.06898438 34.01195312 2 34 C1.99214478 32.65252686 1.99214478 32.65252686 1.98413086 31.27783203 C1.96710275 27.94937501 1.95455663 24.62096419 1.94506836 21.29248047 C1.94003526 19.8510668 1.93320827 18.40965824 1.92456055 16.96826172 C1.91245017 14.89809915 1.90676153 12.82800399 1.90234375 10.7578125 C1.89448853 8.88826904 1.89448853 8.88826904 1.88647461 6.98095703 C2 4 2 4 3 2 C2.01 2 1.02 2 0 2 C0 1.34 0 0.68 0 0 Z " fill="#53347E" transform="translate(167,38)"/>
<path d="M0 0 C1.32 0 2.64 0 4 0 C4 0.66 4 1.32 4 2 C5.32 2 6.64 2 8 2 C8 2.99 8 3.98 8 5 C7.01 5 6.02 5 5 5 C5 6.98 5 8.96 5 11 C4.34 11 3.68 11 3 11 C3 14.63 3 18.26 3 22 C2.01 22 1.02 22 0 22 C-0.19590444 18.52125243 -0.38031592 15.04199096 -0.5625 11.5625 C-0.61857422 10.56927734 -0.67464844 9.57605469 -0.73242188 8.55273438 C-0.78076172 7.60849609 -0.82910156 6.66425781 -0.87890625 5.69140625 C-0.9260376 4.81685791 -0.97316895 3.94230957 -1.02172852 3.04125977 C-1 1 -1 1 0 0 Z " fill="#5D3691" transform="translate(124,52)"/>
<path d="M0 0 C0.66 0.33 1.32 0.66 2 1 C0.62211705 3.9469554 -0.97477845 6.47050895 -2.9375 9.0625 C-3.44152344 9.73410156 -3.94554688 10.40570313 -4.46484375 11.09765625 C-6 13 -6 13 -7.62890625 14.55859375 C-9.25839911 16.06733032 -9.25839911 16.06733032 -10 19 C-11.62652316 20.70586575 -13.29006566 22.3777546 -15 24 C-15.99 23.67 -16.98 23.34 -18 23 C-16.87092799 19.61278396 -15.48555675 18.48555675 -13 16 C-12.67 15.34 -12.34 14.68 -12 14 C-10.74349289 11.48698578 -8.9845146 9.9845146 -7 8 C-6.319375 6.9275 -5.63875 5.855 -4.9375 4.75 C-4.298125 3.8425 -3.65875 2.935 -3 2 C-2.01 2 -1.02 2 0 2 C0 1.34 0 0.68 0 0 Z " fill="#412561" transform="translate(83,15)"/>
<path d="M0 0 C1.65 0.33 3.3 0.66 5 1 C4.52112335 5.76264597 2.50511358 8.22641652 -0.5625 11.8125 C-1.38878906 12.78832031 -2.21507813 13.76414062 -3.06640625 14.76953125 C-3.70449219 15.50558594 -4.34257813 16.24164063 -5 17 C-5 13.07620945 -3.39593058 11.99491322 -1 9 C-1 8.01 -1 7.02 -1 6 C-1.66 6 -2.32 6 -3 6 C-3.226875 6.5775 -3.45375 7.155 -3.6875 7.75 C-5.33038023 10.5663661 -7.39533227 12.08077114 -10 14 C-8.43632643 10.47761953 -6.30504111 7.72876006 -3.875 4.75 C-3.15054688 3.85796875 -2.42609375 2.9659375 -1.6796875 2.046875 C-0.84824219 1.03367187 -0.84824219 1.03367187 0 0 Z " fill="#563581" transform="translate(83,26)"/>
<path d="M0 0 C2.16796875 0.08984375 2.16796875 0.08984375 5 1 C6.96793431 3.16329129 8.63153739 5.19919108 10.3125 7.5625 C10.76689453 8.17802734 11.22128906 8.79355469 11.68945312 9.42773438 C12.80524319 10.94285983 13.90430371 12.47028033 15 14 C14.01 14 13.02 14 12 14 C10.61328125 12.46875 10.61328125 12.46875 9.3125 10.5 C8.87550781 9.8503125 8.43851563 9.200625 7.98828125 8.53125 C7.66214844 8.0259375 7.33601563 7.520625 7 7 C6.01 8.32 5.02 9.64 4 11 C3.13050683 9.92892883 2.27985795 8.84254056 1.4375 7.75 C0.96183594 7.14671875 0.48617188 6.5434375 -0.00390625 5.921875 C-1 4 -1 4 -0.65234375 1.765625 C-0.43707031 1.18296875 -0.22179687 0.6003125 0 0 Z " fill="#5B3883" transform="translate(17,0)"/>
<path d="M0 0 C0.33 0 0.66 0 1 0 C1.33 3.63 1.66 7.26 2 11 C2.99 10.67 3.98 10.34 5 10 C5.99 11.485 5.99 11.485 7 13 C10.60992379 12.34414811 10.60992379 12.34414811 14 11 C13.34 12.32 12.68 13.64 12 15 C9.69 15 7.38 15 5 15 C5.95865509 17.33075929 5.95865509 17.33075929 9 19 C4.69385411 18.52153935 2.75119451 17.34073619 0 14 C-0.89214652 11.32356043 -1.13540211 9.74615622 -1.125 7 C-1.12757813 6.319375 -1.13015625 5.63875 -1.1328125 4.9375 C-1 3 -1 3 0 0 Z " fill="#53347E" transform="translate(204,56)"/>
<path d="M0 0 C0.66 0.33 1.32 0.66 2 1 C1.01453001 2.67529898 0.01059521 4.33973644 -1 6 C-1.928125 7.546875 -1.928125 7.546875 -2.875 9.125 C-5.05153517 12.06972405 -6.67592201 13.51291248 -10 15 C-10.66 14.67 -11.32 14.34 -12 14 C-2.51383399 1.256917 -2.51383399 1.256917 0 0 Z " fill="#693A9B" transform="translate(82,31)"/>
<path d="M0 0 C3.68268739 0.49766046 5.65028767 1.06285959 8 4 C9.50156874 7.00313748 9.09281204 9.79067522 9.0625 13.125 C9.05347656 14.40632813 9.04445312 15.68765625 9.03515625 17.0078125 C9.02355469 17.99523437 9.01195312 18.98265625 9 20 C8.34 20 7.68 20 7 20 C6.96132812 18.66195312 6.96132812 18.66195312 6.921875 17.296875 C6.83679688 15.54117188 6.83679688 15.54117188 6.75 13.75 C6.70359375 12.58984375 6.6571875 11.4296875 6.609375 10.234375 C5.90257419 6.48289377 4.9923903 5.29343782 2 3 C1.01 2.67 0.02 2.34 -1 2 C-0.67 1.34 -0.34 0.68 0 0 Z " fill="#5F3396" transform="translate(134,52)"/>
<path d="M0 0 C0.99 0.33 1.98 0.66 3 1 C3 1.66 3 2.32 3 3 C3.99 3.33 4.98 3.66 6 4 C6.144375 4.639375 6.28875 5.27875 6.4375 5.9375 C6.80104993 8.20311706 6.80104993 8.20311706 9.0625 9.25 C9.701875 9.4975 10.34125 9.745 11 10 C10.67 11.65 10.34 13.3 10 15 C5.3125 11.484375 5.3125 11.484375 4 10 C4 8.68 4 7.36 4 6 C3.34 6 2.68 6 2 6 C1.34 4.02 0.68 2.04 0 0 Z " fill="#683C9D" transform="translate(32,21)"/>
<path d="M0 0 C1.5625 1.25 1.5625 1.25 3 3 C2.6875 5.1875 2.6875 5.1875 2 7 C-0.86724686 6.42655063 -1.8614515 6.1385485 -4 4 C-4.53625 4.495 -5.0725 4.99 -5.625 5.5 C-8.63721374 7.40245078 -10.49662019 7.38080215 -14 7 C-14.66 6.34 -15.32 5.68 -16 5 C-15.07767578 4.94392578 -15.07767578 4.94392578 -14.13671875 4.88671875 C-13.32847656 4.82097656 -12.52023438 4.75523438 -11.6875 4.6875 C-10.88699219 4.62949219 -10.08648437 4.57148437 -9.26171875 4.51171875 C-6.61218205 3.91225535 -5.81454711 2.94114342 -4 1 C-1.8125 1.3125 -1.8125 1.3125 0 2 C0 1.34 0 0.68 0 0 Z " fill="#563380" transform="translate(197,68)"/>
<path d="M0 0 C2.0625 0.4375 2.0625 0.4375 4 1 C4 3.64 4 6.28 4 9 C3.67 9 3.34 9 3 9 C2.67 6.69 2.34 4.38 2 2 C1.01 6.62 0.02 11.24 -1 16 C-0.34 16 0.32 16 1 16 C1.66 18.31 2.32 20.62 3 23 C0 22 0 22 -1.1875 20 C-2.87618211 13.76486605 -2.1790204 7.28810882 -1 1 C-0.67 0.67 -0.34 0.34 0 0 Z " fill="#53357D" transform="translate(178,50)"/>
<path d="M0 0 C0.66 1.32 1.32 2.64 2 4 C-0.31 6.97 -2.62 9.94 -5 13 C-5.99 12.67 -6.98 12.34 -8 12 C-8.33 10.35 -8.66 8.7 -9 7 C-8.01 7 -7.02 7 -6 7 C-6 7.66 -6 8.32 -6 9 C-2.76743757 7.38371879 -2.32663296 4.23006285 -1 1 C-0.67 0.67 -0.34 0.34 0 0 Z " fill="#6A3C9A" transform="translate(67,48)"/>
<path d="M0 0 C0.66 0 1.32 0 2 0 C3.31003937 5.35925197 3.31003937 5.35925197 2.0625 7.9375 C-1.3375989 9.6890661 -4.30019214 8.66717847 -8 8 C-8 7.34 -8 6.68 -8 6 C-4.535 5.505 -4.535 5.505 -1 5 C-0.67 3.35 -0.34 1.7 0 0 Z " fill="#613397" transform="translate(114,55)"/>
<path d="M0 0 C-1.32 0.33 -2.64 0.66 -4 1 C-4 1.66 -4 2.32 -4 3 C-3.34 3.66 -2.68 4.32 -2 5 C-3.98 5.66 -5.96 6.32 -8 7 C-8 6.34 -8 5.68 -8 5 C-8.99 5 -9.98 5 -11 5 C-11.66 6.32 -12.32 7.64 -13 9 C-12.5047783 5.33535945 -11.9791794 3.29167646 -9 1 C-5.8035914 -0.06546953 -3.34252724 -0.07427838 0 0 Z " fill="#5C3A85" transform="translate(241,51)"/>
<path d="M0 0 C3 1 3 1 4 3 C0.43176723 6.2533887 -2.10348117 7.89798919 -7 8 C-9.875 6.5625 -9.875 6.5625 -12 5 C-11.34 4.34 -10.68 3.68 -10 3 C-7.27130593 3.03287583 -4.7033382 3.56397771 -2 4 C-1.34 2.68 -0.68 1.36 0 0 Z " fill="#683A9C" transform="translate(191,66)"/>
<path d="M0 0 C0.99 0.495 0.99 0.495 2 1 C2 5.29 2 9.58 2 14 C2.66 14 3.32 14 4 14 C4.33 10.04 4.66 6.08 5 2 C5.33 2 5.66 2 6 2 C6 6.62 6 11.24 6 16 C4.68 16.33 3.36 16.66 2 17 C0.47893366 13.95786733 0.62570662 10.71952428 0.4375 7.375 C0.39431641 6.66859375 0.35113281 5.9621875 0.30664062 5.234375 C0.20055249 3.48981463 0.09977111 1.74493303 0 0 Z " fill="#503479" transform="translate(139,58)"/>
<path d="M0 0 C4.09839745 -0.3278718 6.61151901 -0.17985231 10.375 1.5625 C13 4 13 4 14 7.625 C14 8.73875 14 9.8525 14 11 C13.34 11.66 12.68 12.32 12 13 C11.01 12.67 10.02 12.34 9 12 C9.66 12 10.32 12 11 12 C11 9.36 11 6.72 11 4 C7.34920174 2.38935371 3.9492568 1.55105909 0 1 C0 0.67 0 0.34 0 0 Z " fill="#513579" transform="translate(105,51)"/>
<path d="M0 0 C0.66 0.33 1.32 0.66 2 1 C0.42029655 3.08617326 -1.16358284 5.16894154 -2.75 7.25 C-3.1934375 7.83652344 -3.636875 8.42304688 -4.09375 9.02734375 C-6.5512507 12.24377849 -9.04682748 15.21242594 -12 18 C-11.67 16.35 -11.34 14.7 -11 13 C-10.01 12.67 -9.02 12.34 -8 12 C-6.95494265 10.16074601 -6.95494265 10.16074601 -6 8 C-4.98739559 6.56241654 -3.94487352 5.1454872 -2.875 3.75 C-2.06675781 2.69039062 -2.06675781 2.69039062 -1.2421875 1.609375 C-0.83226563 1.07828125 -0.42234375 0.5471875 0 0 Z " fill="#301D48" transform="translate(85,16)"/>
<path d="M0 0 C0.66 -0.33 1.32 -0.66 2 -1 C2.33 -0.01 2.66 0.98 3 2 C2.67 2.66 2.34 3.32 2 4 C1.2575 3.649375 0.515 3.29875 -0.25 2.9375 C-3.22700644 1.92261144 -4.12367895 1.97936995 -7 3 C-8.33333333 3.33333333 -9.66666667 3.66666667 -11 4 C-9.54643338 0.24495289 -9.54643338 0.24495289 -7.1875 -0.8125 C-4.62247589 -1.03235921 -2.50817436 -0.52803671 0 0 Z " fill="#683C9B" transform="translate(165,53)"/>
<path d="M0 0 C0.99 0 1.98 0 3 0 C4 3 4 3 3.22265625 4.82421875 C2.1484375 6.54947917 1.07421875 8.27473958 0 10 C-0.144375 9.38125 -0.28875 8.7625 -0.4375 8.125 C-0.93152225 5.96741678 -0.93152225 5.96741678 -2 4 C-1.0625 1.875 -1.0625 1.875 0 0 Z " fill="#663B99" transform="translate(230,56)"/>
<path d="M0 0 C1.32 0 2.64 0 4 0 C3.67 1.32 3.34 2.64 3 4 C-1.40914783 5.10228696 -5.48382401 5.07654536 -10 5 C-7 3 -7 3 -3.875 2.5 C-2.92625 2.335 -1.9775 2.17 -1 2 C-0.67 1.34 -0.34 0.68 0 0 Z " fill="#573481" transform="translate(244,60)"/>
<path d="M0 0 C2.8125 -0.1875 2.8125 -0.1875 6 0 C7.69921875 1.51171875 7.69921875 1.51171875 9 3 C8.07767578 3.09087891 8.07767578 3.09087891 7.13671875 3.18359375 C6.32847656 3.26738281 5.52023438 3.35117187 4.6875 3.4375 C3.88699219 3.51871094 3.08648437 3.59992187 2.26171875 3.68359375 C-0.16087179 3.95265693 -0.16087179 3.95265693 -3 5 C-2.67 4.01 -2.34 3.02 -2 2 C-1.34 2 -0.68 2 0 2 C0 1.34 0 0.68 0 0 Z " fill="#683A9C" transform="translate(105,52)"/>
<path d="M0 0 C4.875 4.625 4.875 4.625 6 8 C5.01 8.33 4.02 8.66 3 9 C1 8 1 8 -0.1875 5.625 C-1 3 -1 3 0 0 Z " fill="#673E9A" transform="translate(27,12)"/>
<path d="M0 0 C2.8125 -0.3125 2.8125 -0.3125 6 0 C7.875 2.5 7.875 2.5 9 5 C5.7 4.34 2.4 3.68 -1 3 C-0.67 2.01 -0.34 1.02 0 0 Z " fill="#633B96" transform="translate(237,52)"/>
<path d="M0 0 C0.33 1.32 0.66 2.64 1 4 C-2.63423209 6.32590854 -5.77088331 6.16265833 -10 6 C-6.79663178 3.16625119 -4.21912747 2.4794463 0 2 C0 1.34 0 0.68 0 0 Z " fill="#613797" transform="translate(245,68)"/>
<path d="M0 0 C0.33 0 0.66 0 1 0 C1.48828125 2.01822917 1.9765625 4.03645833 2.46484375 6.0546875 C2.94846992 8.0585657 2.94846992 8.0585657 4 10 C2.35 9.67 0.7 9.34 -1 9 C-1.33 6.69 -1.66 4.38 -2 2 C-1.34 2 -0.68 2 0 2 C0 1.34 0 0.68 0 0 Z " fill="#5E3889" transform="translate(180,60)"/>
<path d="M0 0 C0.556875 0.7115625 0.556875 0.7115625 1.125 1.4375 C3.62646962 3.52205802 5.81593418 3.64621491 9 4 C9 4.33 9 4.66 9 5 C2.375 5.125 2.375 5.125 -1 4 C-1.33 4.66 -1.66 5.32 -2 6 C-2.66 5.34 -3.32 4.68 -4 4 C-3.67 3.01 -3.34 2.02 -3 1 C-2.34 1.33 -1.68 1.66 -1 2 C-0.67 1.34 -0.34 0.68 0 0 Z " fill="#4C2B79" transform="translate(103,66)"/>
<path d="M0 0 C3.60654039 2.40436026 3.85452932 3.94679607 5 8 C4.01 8.66 3.02 9.32 2 10 C0.875 5.25 0.875 5.25 2 3 C1.34 3 0.68 3 0 3 C0 2.01 0 1.02 0 0 Z " fill="#633D93" transform="translate(53,45)"/>
<path d="M0 0 C0.99 0.66 1.98 1.32 3 2 C1.68 3.65 0.36 5.3 -1 7 C-1.99 6.67 -2.98 6.34 -4 6 C-3.34 6 -2.68 6 -2 6 C-2 4.35 -2 2.7 -2 1 C-1.34 0.67 -0.68 0.34 0 0 Z " fill="#402662" transform="translate(91,4)"/>
<path d="M0 0 C1.32 0.66 2.64 1.32 4 2 C3.67 3.65 3.34 5.3 3 7 C1.0625 6.6875 1.0625 6.6875 -1 6 C-1.33 5.01 -1.66 4.02 -2 3 C0.475 3.99 0.475 3.99 3 5 C2.01 3.35 1.02 1.7 0 0 Z " fill="#513379" transform="translate(218,53)"/>
<path d="M0 0 C0.33 0.66 0.66 1.32 1 2 C-1.31 4.64 -3.62 7.28 -6 10 C-6 6.41087588 -5.33563446 5.89142971 -3 3.3125 C-2.443125 2.68988281 -1.88625 2.06726562 -1.3125 1.42578125 C-0.879375 0.95527344 -0.44625 0.48476563 0 0 Z " fill="#4D337A" transform="translate(80,30)"/>
<path d="M0 0 C3.3 0 6.6 0 10 0 C6.39338934 1.80330533 3.91606575 2.46599103 0 3 C0 2.01 0 1.02 0 0 Z " fill="#533184" transform="translate(233,59)"/>
<path d="M0 0 C1.32 0 2.64 0 4 0 C4.66 1.32 5.32 2.64 6 4 C4.68 4 3.36 4 2 4 C1.34 2.68 0.68 1.36 0 0 Z " fill="#683C9F" transform="translate(42,36)"/>
<path d="M0 0 C3.14737182 0.69941596 6.02588876 1.76078698 9 3 C9 3.33 9 3.66 9 4 C3.375 4.25 3.375 4.25 0 2 C0 1.34 0 0.68 0 0 Z " fill="#633797" transform="translate(102,70)"/>
<path d="M0 0 C1.32 0 2.64 0 4 0 C2.55746343 3.36591866 0.66735273 5.51047079 -2 8 C-1.505 6.2984375 -1.505 6.2984375 -1 4.5625 C0.04504273 1.45623361 0.04504273 1.45623361 0 0 Z " fill="#4E3178" transform="translate(73,43)"/>
</svg>
